<?xml version="1.0" encoding="UTF-8"?>
<svg version="1.1" xmlns="http://www.w3.org/2000/svg" width="413" height="412">
<path d="M0 0 C0.65378128 -0.00014603 1.30756256 -0.00029205 1.9811554 -0.0004425 C4.14551086 0.00025504 6.30978063 0.00803999 8.47412109 0.01586914 C9.97341871 0.01773388 11.47271694 0.01915752 12.97201538 0.02015686 C16.92087482 0.0239776 20.86969756 0.03380411 24.81854248 0.04486084 C28.84695947 0.05508448 32.87538238 0.05965653 36.90380859 0.06469727 C44.81007545 0.07542677 52.71631246 0.09249789 60.62255859 0.11352539 C61.68505859 1.98852539 61.68505859 1.98852539 62.62255859 4.11352539 C62.29255859 4.77352539 61.96255859 5.43352539 61.62255859 6.11352539 C51.06255859 5.78352539 40.50255859 5.45352539 29.62255859 5.11352539 C29.62255859 12.70352539 29.62255859 20.29352539 29.62255859 28.11352539 C38.20255859 28.11352539 46.78255859 28.11352539 55.62255859 28.11352539 C56.11755859 30.58852539 56.11755859 30.58852539 56.62255859 33.11352539 C56.29255859 33.44352539 55.96255859 33.77352539 55.62255859 34.11352539 C47.04255859 34.11352539 38.46255859 34.11352539 29.62255859 34.11352539 C29.62255859 56.22352539 29.62255859 78.33352539 29.62255859 101.11352539 C39.19255859 100.78352539 48.76255859 100.45352539 58.62255859 100.11352539 C60.10755859 100.60852539 60.10755859 100.60852539 61.62255859 101.11352539 C61.95255859 102.10352539 62.28255859 103.09352539 62.62255859 104.11352539 C61.53971863 105.59223938 61.53971863 105.59223938 59.62255859 107.11352539 C56.64228821 107.47428894 56.64228821 107.47428894 52.94799805 107.45410156 C52.26369563 107.45446317 51.57939322 107.45482477 50.87435436 107.45519733 C48.66121765 107.45295969 46.44884078 107.43012243 44.23583984 107.40649414 C42.86877813 107.40208279 41.50171135 107.39902256 40.13464355 107.39733887 C35.06803791 107.38161594 30.00154078 107.3397322 24.93505859 107.30102539 C7.95037109 107.20821289 7.95037109 107.20821289 -9.37744141 107.11352539 C-9.37744141 74.44352539 -9.37744141 41.77352539 -9.37744141 8.11352539 C-10.36744141 7.78352539 -11.35744141 7.45352539 -12.37744141 7.11352539 C-11.71744141 6.78352539 -11.05744141 6.45352539 -10.37744141 6.11352539 C-10.04744141 5.28852539 -9.71744141 4.46352539 -9.37744141 3.61352539 C-7.56044448 -0.92896692 -4.43828055 -0.00831139 0 0 Z " fill="#E46BBA" transform="translate(183.37744140625,120.886474609375)"/>
<path d="M0 0 C2.3359375 2.67578125 2.3359375 2.67578125 4 5 C3.34 6.32 2.68 7.64 2 9 C-1.58550812 8.66385861 -3.88286135 7.52714919 -6.8125 5.5625 C-13.99875143 0.92361382 -21.54551317 0.18097159 -30 1 C-33.22443672 1.79338961 -33.22443672 1.79338961 -35 4 C-35.81228861 7.45222661 -35.79046432 9.66296928 -33.94921875 12.77734375 C-27.99012568 20.06067972 -20.15490563 25.93638158 -13 32 C-10.30448878 34.30312667 -7.62950348 36.62176019 -5 39 C-4.33742188 39.59683594 -3.67484375 40.19367188 -2.9921875 40.80859375 C4.44596086 47.83665408 11.28844033 56.63489534 12.30078125 67.11328125 C12.34336783 78.73941678 10.55754064 85.2733045 2.390625 93.76953125 C-6.57087866 102.13067274 -16.89588399 104.55703422 -28.9375 104.375 C-29.90461914 104.36557373 -30.87173828 104.35614746 -31.86816406 104.34643555 C-42.83288568 104.1142262 -54.12104953 101.78560735 -62.76953125 94.51171875 C-64.51833002 92.36319455 -64.21751105 90.68263634 -64 88 C-61.796875 87.296875 -61.796875 87.296875 -59 87 C-56.640625 88.328125 -56.640625 88.328125 -54.25 90.25 C-44.92125332 97.22918157 -34.47267441 98.81428361 -23 98 C-18.75702752 97.15759962 -15.25848891 96.06780877 -11.9375 93.25 C-10.50712798 89.81710715 -10.44447232 87.70351788 -11 84 C-14.4739069 78.01109293 -19.33975491 73.68970415 -24.75 69.5 C-25.45447266 68.94103027 -26.15894531 68.38206055 -26.88476562 67.80615234 C-28.91666918 66.195622 -30.95750877 64.59706541 -33 63 C-36.34460023 60.34708411 -39.67819349 57.68138615 -43 55 C-43.70511719 54.443125 -44.41023438 53.88625 -45.13671875 53.3125 C-53.19361206 46.68282779 -60.11358148 37.74090359 -61.50390625 27.16796875 C-61.63265431 18.42168404 -61.08168165 11.77894451 -55 5 C-41.66072842 -7.63862297 -15.56060274 -10.00324462 0 0 Z " fill="#9567E9" transform="translate(315,125)"/>
<path d="M0 0 C22.11 0 44.22 0 67 0 C67.99 1.98 67.99 1.98 69 4 C68.67 4.66 68.34 5.32 68 6 C57.44 5.67 46.88 5.34 36 5 C36 12.59 36 20.18 36 28 C44.58 28 53.16 28 62 28 C62.495 30.475 62.495 30.475 63 33 C62.67 33.33 62.34 33.66 62 34 C53.42 34 44.84 34 36 34 C36 56.11 36 78.22 36 101 C45.57 100.67 55.14 100.34 65 100 C66.485 100.495 66.485 100.495 68 101 C68.33 101.99 68.66 102.98 69 104 C67.3001483 106.11918912 66.43094995 106.93231328 63.70307922 107.36076355 C62.80373154 107.35410172 61.90438385 107.34743988 60.9777832 107.34057617 C59.95695145 107.34034958 58.93611969 107.34012299 57.88435364 107.33988953 C56.78427475 107.32440567 55.68419586 107.30892181 54.55078125 107.29296875 C52.85915108 107.28660149 52.85915108 107.28660149 51.13334656 107.28010559 C47.52615633 107.26329311 43.91952178 107.22563528 40.3125 107.1875 C37.86914868 107.17245653 35.42578863 107.15876754 32.98242188 107.14648438 C26.98809118 107.11338116 20.99408529 107.06315593 15 107 C15 106.67 15 106.34 15 106 C30.84 105.67 46.68 105.34 63 105 C63 104.01 63 103.02 63 102 C53.1 102.33 43.2 102.66 33 103 C31 98 31 98 32 95 C32.66 95 33.32 95 34 95 C33.89248322 87.22869568 33.77984667 79.45748398 33.66066074 71.68635082 C33.60548 68.0779594 33.5520678 64.46955979 33.50268555 60.86108398 C33.45497039 57.37916857 33.40262508 53.89735081 33.34705925 50.41555214 C33.31673963 48.43969447 33.29122425 46.46376498 33.26576233 44.48783875 C33.2358445 42.68631096 33.2358445 42.68631096 33.20532227 40.84838867 C33.18200584 39.25954109 33.18200584 39.25954109 33.15821838 37.63859558 C33.10776932 34.89184665 33.10776932 34.89184665 32 32 C32.99 31.01 33.98 30.02 35 29 C34.505 27.515 34.505 27.515 34 26 C33.91893314 24.44578271 33.89243102 22.88832973 33.90234375 21.33203125 C33.90556641 20.43935547 33.90878906 19.54667969 33.91210938 18.62695312 C33.92467773 17.23379883 33.92467773 17.23379883 33.9375 15.8125 C33.94201172 14.87212891 33.94652344 13.93175781 33.95117188 12.96289062 C33.96295374 10.64186288 33.97940442 8.32096356 34 6 C33.01 6 32.02 6 31 6 C31 5.01 31 4.02 31 3 C20.77 2.34 10.54 1.68 0 1 C0 0.67 0 0.34 0 0 Z " fill="#C373BC" transform="translate(177,121)"/>
<path d="M0 0 C3.84733002 0.43184317 6.17365945 1.58483537 9.25 3.875 C18.45960105 10.27567273 28.96316771 11.81855369 40 11 C43.43080573 10.23264163 46.70621747 9.22423775 50 8 C50 8.66 50 9.32 50 10 C41.40490715 13.75058597 33.19378855 13.28499689 24 13 C24 13.66 24 14.32 24 15 C32.25 15 40.5 15 49 15 C43.92114868 17.53942566 40.02317872 17.34443668 34.4375 17.3125 C33.44331055 17.30758545 32.44912109 17.3026709 31.42480469 17.29760742 C20.34783692 17.12038321 8.97149545 14.89183907 0.234375 7.5078125 C-1 6 -1 6 -1.25 3.375 C-1 1 -1 1 0 0 Z " fill="#9B71D4" transform="translate(252,212)"/>
<path d="M0 0 C0.93134766 0.00322266 1.86269531 0.00644531 2.82226562 0.00976562 C4.26182617 0.02233398 4.26182617 0.02233398 5.73046875 0.03515625 C6.70951172 0.03966797 7.68855469 0.04417969 8.69726562 0.04882812 C11.10422986 0.06056941 13.51106732 0.07699206 15.91796875 0.09765625 C15.91796875 0.42765625 15.91796875 0.75765625 15.91796875 1.09765625 C14.62761719 1.14664063 13.33726562 1.195625 12.0078125 1.24609375 C10.29034528 1.32117428 8.57289834 1.39671979 6.85546875 1.47265625 C6.00791016 1.50359375 5.16035156 1.53453125 4.28710938 1.56640625 C-4.58628335 1.97752869 -14.33795022 3.85313677 -21.08203125 10.09765625 C-22.27435738 12.1476958 -22.27435738 12.1476958 -23.08203125 14.09765625 C-23.41203125 14.42765625 -23.74203125 14.75765625 -24.08203125 15.09765625 C-23.91703125 16.04640625 -23.75203125 16.99515625 -23.58203125 17.97265625 C-23.08203125 21.09765625 -23.08203125 21.09765625 -24.08203125 24.09765625 C-25.07203125 24.09765625 -26.06203125 24.09765625 -27.08203125 24.09765625 C-27.08203125 23.43765625 -27.08203125 22.77765625 -27.08203125 22.09765625 C-27.74203125 22.09765625 -28.40203125 22.09765625 -29.08203125 22.09765625 C-29.1814854 28.20856108 -29.15331405 34.07169052 -28.08203125 40.09765625 C-25.77203125 40.75765625 -23.46203125 41.41765625 -21.08203125 42.09765625 C-21.08203125 44.07765625 -21.08203125 46.05765625 -21.08203125 48.09765625 C-18.02939461 49.07886089 -16.13466789 49.07886089 -13.08203125 48.09765625 C-13.62835506 51.92192294 -15.34286722 53.4899721 -18.08203125 56.09765625 C-27.19288118 45.68247524 -32.28404351 38.09977008 -31.58984375 23.984375 C-30.59686654 16.38428017 -27.04391362 11.386562 -21.14453125 6.66015625 C-14.564025 2.21454706 -7.97991357 -0.04895652 0 0 Z " fill="#A96ED6" transform="translate(285.08203125,119.90234375)"/>
<path d="M0 0 C3.7792847 0.40857132 6.24667691 1.34865184 9 4 C9 4.99 9 5.98 9 7 C9.66 7 10.32 7 11 7 C11 7.66 11 8.32 11 9 C12.65 9 14.3 9 16 9 C16 9.99 16 10.98 16 12 C16.99 12.66 17.98 13.32 19 14 C19.99 14.66 20.98 15.32 22 16 C14.01218602 15.69277639 6.34205351 12.61376852 0.16015625 7.46875 C-1.53555453 5.32199157 -1.27873774 3.64800857 -1 1 C-0.67 0.67 -0.34 0.34 0 0 Z " fill="#A873C9" transform="translate(252,212)"/>
<path d="M0 0 C6.22852128 5.51669027 10.61753594 12.50575671 11.203125 20.91796875 C11.42344122 36.28502486 11.42344122 36.28502486 6.39453125 41.7421875 C5.93433594 42.15726563 5.47414063 42.57234375 5 43 C3.63634041 39.31811911 4.55301378 37.52702891 6 34 C5.505 32.515 5.505 32.515 5 31 C5.99 31 6.98 31 8 31 C8.05410687 29.22950311 8.09284119 27.45853151 8.125 25.6875 C8.14820313 24.70136719 8.17140625 23.71523437 8.1953125 22.69921875 C8.20682639 19.77593473 8.20682639 19.77593473 6 17 C5.34 16.01 4.68 15.02 4 14 C4.99 13.67 5.98 13.34 7 13 C7 12.34 7 11.68 7 11 C6.01 10.67 5.02 10.34 4 10 C3.30062468 8.68352881 2.63270867 7.34977849 2 6 C1.34 5.67 0.68 5.34 0 5 C0 3.35 0 1.7 0 0 Z " fill="#7D6BE5" transform="translate(316,171)"/>
<path d="M0 0 C3.95826719 0.56546674 6.759709 1.63546332 10 4 C11.3125 6.1875 11.3125 6.1875 12 8 C11.01 9.485 11.01 9.485 10 11 C4.84535266 10.51675181 1.18449681 7.81389239 -3 5 C-2.01 3.35 -1.02 1.7 0 0 Z " fill="#886CDE" transform="translate(307,123)"/>
<path d="M0 0 C0 0.66 0 1.32 0 2 C-1.11375 2.474375 -2.2275 2.94875 -3.375 3.4375 C-5.26710994 4.25306463 -7.15712709 5.07856355 -9 6 C-9 8.64 -9 11.28 -9 14 C-11.97 13.505 -11.97 13.505 -15 13 C-12.69411765 3.11764706 -12.69411765 3.11764706 -11 1 C-7.31912046 0.01843212 -3.79527761 -0.11162581 0 0 Z " fill="#A167E4" transform="translate(287,121)"/>
<path d="M0 0 C-1.16723633 1.97558594 -1.16723633 1.97558594 -3 4 C-5.4519043 4.45410156 -5.4519043 4.45410156 -8.32421875 4.390625 C-9.35224609 4.37773437 -10.38027344 4.36484375 -11.43945312 4.3515625 C-12.51130859 4.31804687 -13.58316406 4.28453125 -14.6875 4.25 C-15.77095703 4.23195312 -16.85441406 4.21390625 -17.97070312 4.1953125 C-20.64802146 4.14813508 -23.32356909 4.08232249 -26 4 C-26 3.34 -26 2.68 -26 2 C-24.85402344 1.95101562 -23.70804687 1.90203125 -22.52734375 1.8515625 C-20.99737465 1.77647199 -19.46742782 1.70092694 -17.9375 1.625 C-17.18533203 1.5940625 -16.43316406 1.563125 -15.65820312 1.53125 C-11.9594176 1.3391053 -8.61508571 0.99331138 -5.06640625 -0.1015625 C-2 -1 -2 -1 0 0 Z " fill="#9667E9" transform="translate(302,223)"/>
<path d="M0 0 C2.32922758 0.39097749 4.65763186 0.69447372 7 1 C7 1.66 7 2.32 7 3 C5.906875 2.835 4.81375 2.67 3.6875 2.5 C-2.60443383 1.7386984 -9.05017382 0.9970591 -15.125 3.0625 C-17.78873874 5.81503003 -17.78865047 8.26615825 -18 12 C-18.33 12 -18.66 12 -19 12 C-19 8.37 -19 4.74 -19 1 C-11.71833124 -2.05360303 -7.52769992 -1.95621149 0 0 Z " fill="#9570D2" transform="translate(297,124)"/>
<path d="M0 0 C4.75 0.875 4.75 0.875 7 2 C7 2.66 7 3.32 7 4 C7.66 4 8.32 4 9 4 C9 4.66 9 5.32 9 6 C10.65 6 12.3 6 14 6 C14 6.99 14 7.98 14 9 C10.63295715 9.2295711 8.58629732 9.33943529 5.625 7.625 C5.08875 7.08875 4.5525 6.5525 4 6 C4 5.34 4 4.68 4 4 C2.68 4 1.36 4 0 4 C0 2.68 0 1.36 0 0 Z " fill="#AD69DC" transform="translate(254,215)"/>
<path d="M0 0 C0.66 0.33 1.32 0.66 2 1 C2 2.98 2 4.96 2 7 C2.66 7.33 3.32 7.66 4 8 C3.34 8 2.68 8 2 8 C2 9.65 2 11.3 2 13 C1.01 13 0.02 13 -1 13 C-1.33 13.99 -1.66 14.98 -2 16 C-3.32 15.34 -4.64 14.68 -6 14 C-5.01 13.67 -4.02 13.34 -3 13 C-2.87625 12.34 -2.7525 11.68 -2.625 11 C-1.85479462 7.30301417 -0.93049337 3.65994058 0 0 Z " fill="#8967F5" transform="translate(308,209)"/>
<path d="M0 0 C4.29 0 8.58 0 13 0 C13 1.32 13 2.64 13 4 C9.7 4 6.4 4 3 4 C2.67 3.01 2.34 2.02 2 1 C1.34 0.67 0.68 0.34 0 0 Z " fill="#BE6BCE" transform="translate(230,122)"/>
<path d="M0 0 C0.66 0.33 1.32 0.66 2 1 C2 8.26 2 15.52 2 23 C1.34 22.67 0.68 22.34 0 22 C0 15.4 0 8.8 0 2 C-0.66 1.67 -1.32 1.34 -2 1 C-1.34 0.67 -0.68 0.34 0 0 Z " fill="#C673B9" transform="translate(211,125)"/>
<path d="M0 0 C1.77007714 -0.08114106 3.54122098 -0.13925505 5.3125 -0.1875 C6.29863281 -0.22230469 7.28476563 -0.25710937 8.30078125 -0.29296875 C11 0 11 0 12.85546875 1.44921875 C14 3 14 3 14 4 C7.4 4 0.8 4 -6 4 C-6 3.67 -6 3.34 -6 3 C-0.555 2.505 -0.555 2.505 5 2 C3.35 1.67 1.7 1.34 0 1 C0 0.67 0 0.34 0 0 Z " fill="#C36FC0" transform="translate(219,122)"/>
<path d="M0 0 C0.99 0 1.98 0 3 0 C6.41356674 7.87746171 6.41356674 7.87746171 4.6875 12.5625 C4.130625 13.366875 3.57375 14.17125 3 15 C2.01 14.67 1.02 14.34 0 14 C0.66 13.01 1.32 12.02 2 11 C2.30891093 6.7524747 2.33046701 3.6413547 0 0 Z " fill="#8B6FDB" transform="translate(302,205)"/>
<path d="M0 0 C7.48291572 6.15034169 7.48291572 6.15034169 10 10 C9.01 10 8.02 10 7 10 C6.34 9.01 5.68 8.02 5 7 C4.01 7 3.02 7 2 7 C2 6.34 2 5.68 2 5 C1.01 5 0.02 5 -1 5 C-0.67 3.35 -0.34 1.7 0 0 Z " fill="#896FE1" transform="translate(306,161)"/>
<path d="M0 0 C2.5 2.3125 2.5 2.3125 5 5 C5 5.99 5 6.98 5 8 C5.66 8 6.32 8 7 8 C7 8.66 7 9.32 7 10 C3.05860922 8.33248852 0.2107188 5.77289351 -3 3 C-2.01 2.01 -1.02 1.02 0 0 Z " fill="#A073D7" transform="translate(275,177)"/>
<path d="M0 0 C1.98 0.495 1.98 0.495 4 1 C3.38461538 8.50769231 3.38461538 8.50769231 1.4375 11 C0.963125 11.33 0.48875 11.66 0 12 C-1.36365959 8.31811911 -0.44698622 6.52702891 1 3 C0.67 2.01 0.34 1.02 0 0 Z " fill="#7E69F1" transform="translate(321,202)"/>
<path d="M0 0 C1.9375 0.0625 1.9375 0.0625 4 1 C5.25 4.0625 5.25 4.0625 6 7 C5.01 7.33 4.02 7.66 3 8 C3 7.34 3 6.68 3 6 C2.01 5.67 1.02 5.34 0 5 C-0.75 3 -0.75 3 -1 1 C-0.67 0.67 -0.34 0.34 0 0 Z " fill="#8E66F2" transform="translate(297,193)"/>
<path d="M0 0 C2.8992226 0.46761655 3.86675182 0.86675182 6 3 C6 3.99 6 4.98 6 6 C2.62537285 5.45276317 0.91765 4.9451 -2 3 C-1 1 -1 1 0 0 Z " fill="#8365F5" transform="translate(311,126)"/>
<path d="M0 0 C0.66 0 1.32 0 2 0 C2.66 2.31 3.32 4.62 4 7 C2.68 7 1.36 7 0 7 C-0.93423645 3.98968256 -1.04449911 3.13349732 0 0 Z " fill="#D66AC2" transform="translate(209,216)"/>
<path d="M0 0 C3.39417765 3.12621626 5.6062718 5.56541027 7 10 C4.13904359 8.7175023 1.88634082 7.54656011 0 5 C-0.1875 2.3125 -0.1875 2.3125 0 0 Z " fill="#816EDF" transform="translate(316,171)"/>
<path d="M0 0 C0.66 0.33 1.32 0.66 2 1 C1.67 4.96 1.34 8.92 1 13 C0.67 13 0.34 13 0 13 C0 10.36 0 7.72 0 5 C-0.99 4.67 -1.98 4.34 -3 4 C-2.34 3.67 -1.68 3.34 -1 3 C-0.67 2.01 -0.34 1.02 0 0 Z " fill="#A75684" transform="translate(174,124)"/>
<path d="M0 0 C0.66 0 1.32 0 2 0 C2 0.66 2 1.32 2 2 C2.99 2.33 3.98 2.66 5 3 C3.35 4.32 1.7 5.64 0 7 C0 4.69 0 2.38 0 0 Z " fill="#826CE4" transform="translate(316,212)"/>
<path d="M0 0 C2.31 0.33 4.62 0.66 7 1 C7 2.65 7 4.3 7 6 C5.83054208 5.19152271 4.66449539 4.37810888 3.5 3.5625 C2.8503125 3.11003906 2.200625 2.65757812 1.53125 2.19140625 C1.0259375 1.79824219 0.520625 1.40507812 0 1 C0 0.67 0 0.34 0 0 Z " fill="#9072DC" transform="translate(294,197)"/>
<path d="M0 0 C0.99 0.33 1.98 0.66 3 1 C2.67 1.66 2.34 2.32 2 3 C1.34 3 0.68 3 0 3 C-0.33 3.99 -0.66 4.98 -1 6 C-1.66 4.68 -2.32 3.36 -3 2 C-2.01 1.34 -1.02 0.68 0 0 Z " fill="#D76AC5" transform="translate(212,151)"/>
</svg>
